<?xml version="1.0" standalone="no"?>
<!DOCTYPE svg PUBLIC "-//W3C//DTD SVG 20010904//EN"
 "http://www.w3.org/TR/2001/REC-SVG-20010904/DTD/svg10.dtd">
<svg version="1.0" xmlns="http://www.w3.org/2000/svg"
 width="700.000000pt" height="450.000000pt" viewBox="0 0 700.000000 450.000000"
 preserveAspectRatio="xMidYMid meet">

<g transform="translate(0.000000,450.000000) scale(0.100000,-0.100000)"
fill="#000000" stroke="none">
<path d="M7 4493 c-4 -3 -7 -430 -7 -949 0 -817 2 -943 15 -947 18 -8 194 -25
305 -32 47 -2 155 0 240 5 85 5 211 12 280 14 139 5 355 31 382 46 10 6 132
12 270 15 139 3 312 9 383 15 72 5 182 12 245 15 63 3 158 10 210 15 52 5 172
12 265 15 94 3 193 8 220 10 28 2 131 9 230 15 99 6 250 15 335 20 85 6 210
13 277 16 68 3 137 9 155 14 23 7 29 7 21 -1 -6 -6 -9 -17 -7 -24 7 -19 -7
-25 -62 -26 -27 -1 -74 -8 -104 -17 -30 -8 -95 -19 -145 -24 -49 -5 -108 -13
-130 -19 -22 -6 -69 -17 -105 -26 -110 -26 -95 -34 50 -27 74 4 191 7 260 8
177 2 636 25 760 37 136 14 388 16 468 5 58 -8 64 -7 87 14 14 13 25 32 25 42
0 10 5 18 10 18 6 0 10 5 10 11 0 5 -4 8 -9 5 -5 -3 -12 9 -15 28 -4 19 -13
37 -21 40 -19 7 -19 26 0 26 8 0 15 -5 15 -11 0 -6 23 -8 66 -4 54 4 65 3 61
-8 -3 -8 -1 -20 5 -28 8 -11 9 -10 4 5 -5 13 -2 17 8 13 13 -5 13 -2 4 18 -14
32 6 59 39 52 13 -2 26 0 30 6 3 5 2 7 -3 4 -6 -3 -16 -2 -24 3 -11 7 -7 10
13 16 35 8 42 2 27 -27 -11 -19 -10 -21 3 -16 9 3 18 -1 22 -11 3 -9 1 -18 -4
-20 -6 -2 -11 -11 -11 -20 0 -12 7 -8 24 13 13 16 22 33 20 37 -3 4 3 5 12 1
12 -4 24 2 39 21 18 22 22 24 23 9 1 -24 -19 -63 -32 -63 -6 0 -5 5 2 12 15
15 16 32 1 23 -15 -10 -30 -55 -23 -67 11 -18 84 71 84 103 0 23 -3 27 -17 22
-15 -5 -14 -1 4 18 18 19 30 24 56 21 28 -3 38 2 63 31 16 18 34 42 40 53 7
10 15 16 19 12 5 -5 1 -16 -8 -26 -23 -25 -21 -32 8 -32 16 0 25 -6 25 -15 0
-13 4 -14 20 -5 11 6 24 9 29 6 26 -16 71 70 48 93 -11 11 -5 13 51 15 9 1 20
6 24 11 5 7 14 6 28 -2 23 -15 54 -17 46 -4 -8 12 67 10 76 -3 3 -5 29 -9 58
-8 37 1 53 -3 57 -14 3 -8 20 -21 37 -29 27 -12 28 -13 9 -14 -28 -1 -31 -31
-4 -38 11 -3 22 -11 25 -19 3 -7 23 -22 46 -34 22 -11 40 -26 40 -33 0 -8 -3
-8 -9 2 -5 8 -23 14 -40 15 -18 1 -33 7 -36 16 -6 20 -56 49 -72 43 -21 -8
-15 -31 12 -49 29 -19 34 -38 8 -30 -23 7 -48 -8 -39 -23 4 -7 1 -9 -8 -5 -8
3 -14 13 -14 22 0 9 -4 29 -10 44 -10 24 -16 27 -43 24 -52 -5 -79 -67 -44
-96 17 -14 20 -50 4 -50 -5 0 -7 4 -4 10 4 6 -5 7 -24 4 -26 -6 -29 -4 -24 14
3 14 -2 24 -15 31 -11 6 -21 9 -23 7 -2 -2 -16 -6 -31 -10 -20 -4 -26 -2 -24
9 2 17 16 33 16 19 0 -6 15 -8 33 -6 39 4 48 36 14 47 -36 12 -41 12 -74 -4
-41 -19 -45 -56 -8 -73 29 -13 33 -26 8 -24 -25 2 -30 -56 -7 -75 10 -8 15 -9
11 -3 -4 7 2 14 13 17 11 3 20 1 20 -4 0 -5 1 -12 1 -16 1 -4 -11 -15 -27 -24
-23 -13 -29 -22 -27 -47 2 -30 1 -30 -18 -11 -37 37 -71 18 -97 -55 -11 -32
-25 -52 -40 -57 -17 -6 -22 -5 -22 7 0 11 5 14 17 10 10 -4 14 -4 10 0 -4 4
-3 12 2 18 4 6 14 33 21 59 11 41 11 50 0 57 -9 6 -19 2 -28 -11 -13 -19 -38
-17 -27 2 4 5 1 9 -4 9 -16 0 -13 -16 5 -34 8 -9 10 -16 4 -16 -6 0 -13 7 -16
15 -15 39 -48 1 -41 -49 4 -32 -20 -29 -26 4 -7 31 -27 42 -27 14 0 -8 -4 -13
-9 -9 -6 3 -14 -2 -20 -12 -13 -26 -18 -78 -6 -80 6 -1 9 9 7 23 -4 29 17 62
28 43 4 -6 19 -12 34 -12 17 -1 24 -6 21 -15 -3 -8 -5 -16 -5 -19 0 -3 -7 0
-15 7 -17 14 -35 5 -35 -17 0 -9 -7 -24 -16 -34 -10 -11 -14 -25 -9 -36 6 -16
9 -15 31 10 13 15 24 22 23 15 -1 -22 -14 -49 -24 -51 -6 -1 -10 -20 -11 -42
-1 -54 -12 -79 -29 -65 -10 8 -14 7 -18 -7 -4 -17 -5 -17 -6 0 -1 17 -16 23
-24 10 -2 -5 -2 -2 0 5 1 8 3 23 3 35 1 22 1 22 13 2 13 -21 40 -26 54 -11 4
5 3 6 -4 2 -9 -5 -11 -2 -7 9 7 18 -15 105 -27 105 -14 0 -23 -23 -21 -52 1
-15 -2 -28 -8 -28 -5 0 -10 5 -10 10 0 15 -36 12 -50 -5 -18 -21 -28 -19 -32
8 -2 13 -9 21 -18 19 -11 -3 -12 -1 -3 8 8 9 7 17 -5 31 -44 51 -100 -11 -101
-111 0 -68 12 -87 45 -65 34 22 30 0 -5 -33 -22 -20 -29 -36 -29 -63 0 -49 11
-67 32 -50 13 11 13 9 3 -20 -9 -25 -9 -33 1 -36 6 -3 10 -9 6 -14 -3 -5 0 -9
5 -9 6 0 2 -9 -9 -20 -25 -25 -26 -25 -26 3 0 37 -46 127 -65 127 -26 0 -31
-28 -9 -50 11 -11 15 -22 10 -25 -6 -4 -10 -3 -10 1 0 3 -6 1 -14 -5 -11 -9
-12 -7 -9 13 6 30 -11 41 -31 20 -20 -19 -20 -38 -1 -58 8 -8 15 -22 15 -30 0
-16 11 -20 40 -16 23 3 24 7 7 34 -15 22 -15 25 -1 30 23 9 23 8 19 -14 -3
-14 3 -23 16 -28 19 -8 19 -9 -5 -22 -14 -7 -26 -18 -26 -25 0 -6 -5 -16 -11
-22 -13 -13 -67 38 -81 80 -13 36 -46 35 -80 -3 -15 -17 -28 -36 -30 -42 -3
-8 -14 -3 -30 14 -26 29 -38 28 -38 -4 0 -15 -5 -18 -20 -13 -13 4 -20 2 -20
-7 0 -7 -10 2 -21 20 -12 17 -24 32 -29 32 -4 0 -10 9 -13 20 -7 27 -27 25
-27 -2 -1 -19 -2 -20 -10 -7 -5 9 -13 33 -18 55 -6 21 -13 48 -18 59 -7 20 -7
20 14 1 16 -14 20 -26 16 -45 l-5 -26 15 25 c8 14 16 39 17 55 1 21 5 11 15
-32 15 -71 38 -103 72 -103 19 0 23 4 19 20 -3 11 -1 20 5 20 11 0 1 170 -12
183 -4 5 -15 1 -24 -8 -9 -9 -16 -12 -16 -6 0 6 -7 11 -15 11 -8 0 -15 -9 -15
-20 0 -11 -7 -20 -15 -20 -16 0 -20 12 -8 24 4 3 8 16 10 27 2 12 8 29 14 38
10 14 10 14 6 0 -4 -12 1 -17 21 -17 40 0 62 16 62 44 0 14 5 34 10 45 15 26
2 24 -25 -5 -15 -16 -19 -27 -12 -29 9 -3 9 -8 0 -17 -12 -13 -33 -6 -33 11 0
5 9 18 20 29 20 20 20 20 -9 20 -17 0 -33 -4 -36 -10 -3 -5 -17 -10 -30 -10
-33 0 -58 -36 -42 -61 12 -20 29 -6 20 17 -2 7 5 17 16 24 24 13 27 3 6 -24
-9 -12 -15 -42 -15 -77 0 -33 -5 -61 -12 -65 -7 -4 -8 -3 -4 4 4 7 3 12 -3 12
-6 0 -9 16 -7 36 1 19 -3 43 -10 52 -11 16 -14 15 -33 -2 -28 -25 -28 -3 0 35
l20 29 -27 10 c-15 6 -33 9 -41 6 -15 -6 -18 -26 -3 -26 14 0 12 -23 -4 -55
-11 -22 -12 -32 -3 -46 13 -21 27 -25 27 -8 0 5 5 7 10 4 6 -3 10 0 10 7 0 8
7 23 15 34 15 18 15 18 9 -8 -3 -14 0 -36 6 -49 11 -19 10 -24 -5 -36 -13 -9
-18 -26 -18 -58 0 -26 -5 -49 -13 -56 -17 -14 -19 9 -5 59 12 39 -1 48 -42 33
-20 -8 -27 -17 -27 -38 0 -38 -18 -17 -22 26 -2 19 -9 36 -15 39 -10 3 -12 -9
-8 -45 2 -26 2 -40 -1 -30 -7 23 -24 22 -24 -3 0 -23 30 -61 42 -54 4 3 8 0 8
-5 0 -6 -5 -11 -11 -11 -6 0 -9 -7 -5 -15 3 -8 2 -15 -2 -15 -4 0 -8 -11 -9
-25 -1 -14 -3 -37 -4 -51 -1 -14 4 -31 10 -37 8 -8 11 -3 11 20 0 50 12 93 23
86 6 -4 8 2 5 15 -4 12 -2 20 2 17 5 -3 11 4 15 15 7 21 30 27 40 10 4 -6 10
-8 14 -6 18 11 30 -11 22 -39 -7 -23 -10 -25 -11 -10 -1 11 -2 22 -2 25 0 3
-13 7 -29 8 -27 2 -29 0 -19 -17 5 -11 18 -25 28 -30 16 -10 16 -10 0 -11 -14
0 -15 -5 -8 -31 5 -17 17 -37 27 -44 17 -13 16 -14 -7 -23 -21 -8 -27 -6 -37
12 -6 11 -9 24 -7 28 8 12 -7 78 -16 73 -5 -3 -6 -20 -3 -39 3 -19 1 -36 -6
-40 -6 -4 -11 -16 -11 -27 0 -15 5 -19 19 -14 10 3 23 0 29 -7 14 -17 24 -84
11 -71 -6 6 -11 19 -11 30 -2 24 -35 28 -41 5 -2 -9 0 -27 4 -38 6 -18 3 -23
-17 -27 -22 -4 -25 -2 -20 17 19 64 19 76 1 76 -10 0 -15 3 -12 6 4 4 -1 20
-10 35 -13 22 -22 27 -40 23 -16 -5 -25 -1 -30 12 -4 11 -13 24 -21 30 -13 9
-11 12 8 17 31 8 17 25 -16 19 -25 -5 -26 -3 -20 24 4 16 8 37 9 47 1 9 9 17
19 17 17 0 37 45 25 56 -10 10 -27 -7 -27 -27 0 -10 -5 -19 -10 -19 -6 0 -8
11 -4 27 4 15 7 33 7 40 0 9 5 9 21 0 39 -22 60 -15 77 28 8 22 13 46 11 53
-8 24 -27 5 -33 -34 l-6 -39 -8 33 c-9 37 -30 44 -23 7 3 -14 1 -28 -3 -31 -5
-3 -9 9 -9 25 0 17 -4 31 -10 31 -5 0 -10 6 -10 14 0 9 9 12 27 10 34 -3 53
11 53 42 0 12 5 26 10 29 20 12 9 33 -21 44 -34 12 -60 4 -38 -10 11 -7 10 -9
-3 -9 -9 0 -18 5 -20 11 -2 5 -11 7 -21 4 -18 -8 -23 -25 -7 -25 6 0 10 -6 10
-13 0 -8 10 -13 23 -12 12 1 26 -3 30 -9 5 -6 6 -1 2 11 -7 25 10 41 19 17 3
-9 0 -25 -8 -36 -10 -14 -15 -16 -19 -6 -3 10 -9 10 -23 2 -26 -15 -48 -4 -53
26 -4 31 -17 40 -59 40 -30 0 -33 -2 -26 -22 17 -54 16 -54 6 -39 -16 22 -52
4 -59 -30 -3 -16 -10 -29 -15 -29 -5 0 -7 4 -4 9 3 5 -1 25 -10 46 -14 34 -18
36 -49 32 -20 -3 -36 0 -38 7 -7 18 59 13 81 -7 16 -14 25 -16 40 -8 11 6 22
7 26 4 3 -3 6 3 6 15 0 25 5 24 -125 28 -129 4 -195 -3 -175 -19 8 -7 17 -21
18 -32 3 -17 0 -16 -20 8 -16 18 -33 27 -52 27 -28 0 -28 -1 -13 -18 10 -10
17 -23 17 -29 0 -6 10 -9 23 -6 18 4 19 3 7 -6 -13 -9 -13 -11 3 -11 40 0 0
-30 -47 -34 -5 -1 -12 -10 -17 -21 -4 -11 -8 -16 -8 -11 -1 6 -7 1 -15 -9 -8
-11 -20 -16 -29 -12 -26 10 -29 -10 -5 -27 12 -9 17 -16 10 -16 -6 0 -12 -7
-12 -16 0 -8 -5 -12 -10 -9 -6 4 -17 2 -25 -5 -11 -9 -12 -7 -8 12 4 13 11 27
17 31 8 6 7 10 -1 14 -7 2 -13 11 -13 19 0 8 -7 14 -15 14 -17 0 -21 -16 -5
-22 6 -2 4 -18 -4 -41 -12 -36 -36 -71 -36 -53 0 5 -7 3 -15 -4 -8 -7 -13 -16
-10 -20 3 -5 1 -11 -4 -14 -5 -3 -7 -15 -4 -26 3 -11 9 -17 14 -14 5 3 9 0 9
-5 0 -6 -4 -11 -10 -11 -5 0 -10 -7 -10 -15 0 -8 -5 -15 -11 -15 -6 0 -9 -6
-6 -12 2 -7 -2 -26 -11 -43 -8 -16 -18 -37 -22 -45 -4 -8 -17 -17 -29 -20 -22
-5 -21 -6 9 -47 18 -24 28 -43 23 -43 -4 0 -1 -5 7 -10 13 -9 13 -10 0 -10
-12 -1 -11 -3 3 -11 10 -6 22 -21 27 -34 5 -14 23 -28 45 -35 31 -10 39 -9 54
4 10 9 23 16 30 16 6 0 35 24 64 53 46 46 57 53 97 55 32 2 53 10 74 30 16 15
25 21 21 13 -6 -10 -4 -12 4 -7 12 8 118 -39 136 -61 6 -6 41 -33 80 -59 70
-47 96 -69 95 -79 -2 -41 2 -76 13 -87 15 -16 21 -48 9 -48 -6 0 -1 -17 9 -37
12 -23 15 -39 9 -41 -6 -2 -8 -8 -4 -13 9 -15 -8 -10 -30 8 -20 18 -20 18 -2
-12 10 -16 25 -35 33 -41 7 -7 12 -18 11 -25 -2 -7 6 -17 18 -23 11 -6 19 -17
16 -24 -2 -6 3 -12 11 -12 10 0 14 -9 13 -30 -2 -23 2 -30 18 -32 12 -2 21
-10 21 -18 0 -17 -24 -21 -42 -7 -17 12 -63 0 -63 -17 0 -7 11 -26 25 -42 14
-16 25 -32 25 -37 0 -11 -62 -47 -72 -41 -18 11 -58 11 -67 0 -5 -6 -11 -22
-13 -36 -1 -14 -10 -31 -18 -38 -13 -10 -13 -11 3 -6 13 5 16 2 11 -10 -3 -9
-14 -15 -23 -14 -12 2 -16 -4 -14 -27 5 -88 4 -108 -7 -118 -6 -7 -10 -7 -8
-2 2 6 -1 11 -7 13 -5 1 -12 -7 -13 -19 -5 -30 -26 -49 -66 -60 -32 -9 -34
-11 -26 -39 5 -18 5 -30 -1 -30 -5 0 -10 6 -10 13 -1 6 -2 17 -4 22 -1 6 -3
17 -4 25 -1 12 -4 12 -15 -3 -8 -10 -13 -32 -11 -47 4 -28 3 -29 -22 -19 -32
12 -38 7 -23 -21 6 -12 14 -19 17 -16 4 3 12 1 18 -4 9 -7 28 -7 61 1 92 22
219 61 228 69 5 5 14 6 21 4 6 -3 12 2 12 10 0 11 -9 13 -34 9 -42 -7 -42 2 1
41 25 23 35 42 39 73 4 31 18 60 55 105 27 35 57 78 66 96 22 42 32 40 40 -8
5 -32 1 -48 -17 -78 -13 -20 -38 -66 -56 -102 -18 -36 -41 -73 -50 -84 -9 -10
-15 -27 -13 -38 3 -14 0 -18 -8 -13 -9 5 -10 1 -6 -13 4 -11 2 -23 -3 -27 -7
-3 -8 0 -5 10 5 11 2 14 -10 9 -12 -5 -13 -10 -5 -25 9 -18 23 -24 44 -19 6 2
28 4 50 6 84 6 140 18 208 43 75 28 95 49 117 123 6 21 26 70 44 110 18 40 50
112 71 160 38 87 58 114 130 177 22 19 58 51 80 71 35 31 58 41 155 65 63 15
120 31 125 35 12 9 45 7 61 -3 7 -4 45 2 85 12 41 10 153 33 249 51 96 18 270
54 385 81 116 26 273 59 350 73 77 14 223 47 325 72 228 56 220 53 220 65 0
12 -79 11 -159 -2 -109 -19 -422 -77 -658 -122 l-223 -43 65 67 c81 84 93 110
66 153 -41 64 -55 92 -63 131 -21 93 -28 174 -22 235 4 36 6 73 5 83 -1 9 2
17 7 17 5 0 9 6 10 13 0 6 4 22 7 34 6 18 2 25 -16 32 -16 6 -29 5 -39 -3 -8
-6 0 6 18 27 17 21 32 42 32 47 0 6 8 10 19 10 14 0 20 10 25 42 4 23 12 48
17 55 6 6 8 17 4 23 -7 12 -21 0 -48 -42 -18 -30 -61 -40 -51 -13 6 16 -3 21
-48 29 -20 3 -25 1 -21 -10 6 -18 -6 -69 -14 -60 -4 4 -6 27 -4 52 1 26 -1 44
-6 41 -5 -3 -9 3 -9 13 0 10 3 17 7 14 4 -2 9 4 11 13 3 15 5 14 10 -5 3 -12
2 -20 -3 -16 -5 3 -9 1 -9 -4 0 -6 8 -13 17 -16 23 -9 39 13 47 64 3 22 11 41
16 41 13 2 29 6 33 9 1 1 10 3 20 5 12 2 17 -1 13 -10 -3 -10 0 -12 12 -9 14
5 13 2 -3 -13 -11 -10 -21 -31 -23 -46 -2 -25 0 -27 18 -17 11 6 25 8 30 5 5
-3 7 1 4 9 -7 18 21 49 39 43 6 -2 24 2 39 9 23 12 32 11 65 -3 21 -9 51 -15
66 -14 15 1 33 -2 40 -7 12 -10 83 -16 165 -13 30 1 42 5 42 16 0 8 12 17 28
21 15 3 34 8 42 11 17 5 47 8 205 20 61 4 125 6 143 5 l32 -3 0 699 c0 529 -3
701 -12 710 -9 9 -9 12 0 12 9 0 12 42 12 160 l0 160 -500 0 c-393 0 -500 -3
-500 -12 0 -10 -2 -10 -8 0 -6 9 -31 12 -80 11 -69 -2 -72 -3 -72 -26 0 -14
-4 -21 -10 -18 -6 3 -10 15 -10 25 0 19 -15 19 -510 20 l-510 0 0 -25 c0 -14
-7 -39 -15 -55 -9 -17 -13 -40 -10 -53 8 -29 -41 -107 -65 -107 -9 0 -30 -7
-46 -14 -16 -8 -46 -17 -67 -19 -21 -2 -43 -9 -49 -15 -7 -7 -20 -12 -29 -12
-24 0 -32 -15 -15 -29 11 -9 12 -18 3 -41 -15 -40 -33 -44 -63 -15 -14 14 -33
25 -44 25 -10 0 -22 5 -26 11 -4 7 -22 9 -47 6 -53 -7 -73 4 -97 56 -12 26
-31 47 -48 54 -15 7 -35 18 -44 25 -15 10 -20 10 -34 -3 -14 -15 -14 -20 -2
-45 21 -42 15 -71 -20 -102 -38 -34 -139 -60 -170 -43 -10 6 -53 9 -93 8 -41
-2 -81 0 -90 4 -19 9 -61 0 -54 -11 8 -13 -25 -21 -45 -10 -10 6 -33 10 -50
10 -18 0 -33 6 -36 15 -4 8 -11 15 -16 15 -6 0 -31 15 -57 33 -58 42 -158 68
-175 46 -6 -8 -18 -13 -28 -11 -9 2 -19 -2 -23 -7 -10 -17 -25 -13 -25 8 0 31
-26 44 -75 39 -25 -3 -42 -2 -40 2 7 11 -20 20 -57 20 -22 0 -29 4 -25 14 9
23 -16 36 -49 27 -19 -5 -30 -15 -32 -29 -4 -29 -64 -54 -117 -50 -33 2 -42
-1 -50 -20 -5 -12 -14 -22 -20 -22 -23 0 -105 -121 -105 -155 0 -12 -8 -15
-27 -13 -25 3 -28 8 -31 45 -3 36 1 44 23 59 l26 17 -22 15 c-12 8 -40 16 -63
17 -57 4 -106 16 -106 26 0 5 -4 9 -10 9 -6 0 -6 -9 0 -24 7 -19 4 -28 -16
-47 -13 -12 -24 -17 -24 -11 0 18 -46 14 -93 -7 -23 -10 -60 -26 -82 -35 -48
-20 -85 -53 -85 -77 0 -9 -10 -19 -24 -23 -27 -7 -56 1 -56 15 0 4 -16 11 -35
15 -26 5 -41 2 -54 -10 -29 -26 -63 -19 -86 16 -19 31 -23 32 -100 36 -68 3
-81 1 -93 -15 -7 -10 -16 -17 -20 -17 -16 3 -50 -16 -56 -32 -5 -14 -16 -16
-78 -10 -69 7 -89 16 -101 46 -3 9 -6 10 -6 3 -1 -7 -8 -13 -16 -13 -8 0 -15
-4 -15 -10 0 -5 -8 -10 -17 -10 -10 0 -31 -7 -47 -15 -16 -9 -36 -13 -43 -11
-22 9 -96 -25 -84 -37 15 -15 14 -30 -1 -24 -7 2 -21 0 -31 -5 -12 -6 -22 -4
-32 6 -15 14 -31 14 -91 1 -26 -6 -35 -2 -60 24 -16 17 -32 45 -35 62 -6 27
-2 36 29 65 33 31 54 39 122 46 22 3 25 8 28 48 3 32 -1 48 -13 56 -12 9 -15
21 -10 42 6 28 9 30 71 37 71 7 121 -4 149 -35 23 -25 41 -25 90 0 33 17 39
25 41 57 2 21 -3 58 -10 83 -8 26 -10 54 -5 65 4 11 8 26 8 33 1 9 -150 12
-722 12 -398 0 -727 -3 -730 -7z m6333 -37 c0 -3 -4 -8 -10 -11 -5 -3 -10 -1
-10 4 0 6 5 11 10 11 6 0 10 -2 10 -4z m-6197 -57 c4 -16 0 -19 -24 -19 -34 0
-45 19 -29 50 11 20 13 21 30 5 10 -9 20 -25 23 -36z m6502 41 c4 -6 -6 -10
-22 -10 -22 0 -25 2 -13 10 19 12 27 12 35 0z m-965 -26 c13 -34 13 -34 -15
-34 -30 0 -43 24 -25 45 18 22 29 19 40 -11z m900 16 c0 -5 11 -10 25 -10 19
0 25 -5 25 -23 0 -43 -35 -60 -64 -31 -9 9 -24 17 -33 18 -27 4 -25 20 4 38
32 20 43 22 43 8z m-252 -37 c-3 -24 -8 -28 -33 -28 -25 0 -30 4 -33 28 -3 25
-1 27 33 27 34 0 36 -2 33 -27z m-768 -44 c0 -10 5 -21 12 -25 8 -5 9 -2 5 10
-4 10 -3 15 3 11 16 -10 12 -42 -6 -49 -29 -11 -72 -6 -88 10 -22 21 -20 44 7
76 l22 27 23 -21 c12 -12 22 -29 22 -39z m-4806 25 c21 -21 20 -37 -3 -58 -18
-16 -21 -16 -50 -1 -26 13 -30 19 -21 35 10 18 37 39 52 40 4 0 14 -7 22 -16z
m5016 -42 c-14 -5 -40 17 -40 34 0 10 8 7 26 -8 14 -13 20 -24 14 -26z m130
-10 c0 -10 -18 -38 -39 -61 -26 -28 -42 -56 -46 -82 -6 -37 -18 -49 -29 -30
-3 5 1 21 8 37 11 20 12 33 5 47 -6 10 -7 22 -3 25 4 4 9 2 11 -5 7 -20 41 7
35 29 -2 10 0 18 6 18 6 0 14 9 17 20 8 25 35 26 35 2z m-280 -6 c0 -3 -4 -8
-10 -11 -5 -3 -10 -1 -10 4 0 6 5 11 10 11 6 0 10 -2 10 -4z m-4740 -24 c0 -4
-9 -8 -20 -9 -11 -1 -18 2 -15 8 7 11 35 12 35 1z m4845 -32 c3 -6 -1 -13 -9
-16 -9 -3 -13 -10 -10 -15 11 -18 -32 -8 -49 11 -9 11 -17 22 -17 25 0 10 79
5 85 -5z m-30 -100 c3 -5 1 -10 -4 -10 -6 0 -11 5 -11 10 0 6 2 10 4 10 3 0 8
-4 11 -10z m-596 -14 c10 -12 8 -17 -8 -25 -11 -6 -28 -11 -38 -11 -15 0 -16
-2 -3 -10 10 -7 11 -10 2 -10 -7 0 -15 7 -18 15 -4 9 -19 15 -36 15 -47 0 -17
28 35 33 23 2 45 4 48 5 4 1 12 -4 18 -12z m1271 -6 c0 -5 -2 -10 -4 -10 -3 0
-8 5 -11 10 -3 6 -1 10 4 10 6 0 11 -4 11 -10z m-1430 -77 c0 -18 -17 -16 -24
3 -8 22 4 40 15 23 5 -8 9 -20 9 -26z m668 -11 c2 -7 -2 -10 -12 -6 -9 3 -16
11 -16 16 0 13 23 5 28 -10z m-2838 -22 c0 -5 -5 -10 -11 -10 -5 0 -7 5 -4 10
3 6 8 10 11 10 2 0 4 -4 4 -10z m3130 -25 c0 -7 -7 -18 -15 -25 -12 -10 -18
-10 -30 0 -14 12 -14 15 1 31 17 19 44 15 44 -6z m-2212 -46 c-3 -45 -19 -58
-46 -40 -11 6 -11 17 -2 50 6 23 15 39 20 36 6 -4 10 -1 10 6 0 9 3 10 11 2 5
-5 9 -30 7 -54z m3270 -1 c-14 -8 -48 -11 -48 -3 0 3 10 16 22 30 l22 26 8
-22 c6 -15 4 -25 -4 -31z m-1192 -34 c-3 -9 -6 -18 -6 -20 0 -3 -4 -3 -10 1
-11 7 -2 35 12 35 6 0 7 -7 4 -16z m-3849 -26 c-3 -8 -6 -5 -6 6 -1 11 2 17 5
13 3 -3 4 -12 1 -19z m1586 14 c17 -7 16 -9 -3 -30 -11 -12 -25 -22 -29 -22
-15 0 -22 32 -10 46 13 15 16 16 42 6z m-2153 -18 c0 -3 -5 -14 -10 -25 -18
-32 -77 -19 -64 14 4 11 18 17 40 17 19 0 34 -3 34 -6z m1160 -33 c0 -21 -27
-31 -45 -17 -16 12 -17 16 -6 30 10 12 18 13 32 5 10 -5 19 -13 19 -18z
m-1325 -1 c-3 -5 -11 -10 -16 -10 -6 0 -7 5 -4 10 3 6 11 10 16 10 6 0 7 -4 4
-10z m4415 0 c0 -5 -4 -10 -10 -10 -5 0 -10 5 -10 10 0 6 5 10 10 10 6 0 10
-4 10 -10z m-4316 -35 c-7 -16 -24 -21 -24 -6 0 8 7 13 27 20 1 1 0 -6 -3 -14z
m1639 -31 c2 -13 0 -24 -5 -24 -5 0 -8 -8 -6 -17 2 -10 -3 -18 -9 -17 -7 1
-20 2 -28 3 -9 0 -15 11 -15 26 0 20 -5 25 -26 25 -17 0 -23 4 -18 12 5 8 2 9
-10 5 -10 -4 -15 -3 -11 3 3 6 33 9 65 9 53 -1 59 -4 63 -25z m3822 9 c-31 -7
-40 -21 -11 -16 15 3 26 1 26 -6 0 -6 -19 -11 -45 -11 -25 0 -45 4 -45 8 0 10
49 30 75 30 l20 0 -20 -5z m-4110 -13 c18 -8 17 -9 -7 -9 -16 -1 -28 4 -28 9
0 12 8 12 35 0z m3975 0 c0 -5 -4 -10 -10 -10 -5 0 -10 5 -10 10 0 6 5 10 10
10 6 0 10 -4 10 -10z m-3300 -5 c0 -3 -9 -16 -20 -27 -15 -16 -23 -19 -31 -11
-18 18 -2 43 26 43 14 0 25 -2 25 -5z m-648 -83 c-7 -2 -12 -11 -12 -19 0 -9
-3 -13 -7 -10 -3 4 0 19 8 33 8 16 15 21 18 13 2 -7 -1 -15 -7 -17z m3793 -70
c0 -18 -20 -15 -23 4 -3 10 1 15 10 12 7 -3 13 -10 13 -16z m-132 -49 c-25
-19 -43 -16 -43 7 0 28 32 44 48 22 11 -14 10 -19 -5 -29z m597 -3 c0 -22 -3
-23 -37 -14 -29 8 -19 34 13 34 17 0 24 -6 24 -20z m-3128 -32 c-6 -6 -15 -8
-19 -4 -4 4 -1 11 7 16 19 12 27 3 12 -12z m2888 -23 c0 -16 -42 -30 -65 -21
-8 3 -12 12 -9 21 8 20 74 21 74 0z m-2240 -14 c0 -5 -7 -14 -15 -21 -8 -7
-15 -19 -15 -27 0 -8 -4 -11 -10 -8 -5 3 -10 2 -10 -4 0 -19 -58 -41 -106 -41
-44 0 -46 1 -28 15 10 8 25 15 32 15 13 0 87 45 110 67 15 15 42 17 42 4z
m1983 -35 c9 -7 17 -25 17 -38 0 -21 -6 -27 -32 -31 -41 -6 -58 7 -58 43 0 39
38 52 73 26z m530 -89 c6 -15 3 -17 -16 -11 -12 4 -32 7 -44 6 -29 -2 -29 4
-1 33 21 22 24 23 38 7 9 -9 19 -25 23 -35z m-1163 14 c0 -21 -26 -36 -35 -21
-4 6 -2 10 4 10 6 0 8 7 5 15 -4 9 0 15 10 15 9 0 16 -8 16 -19z m-1214 -41
c20 0 17 -18 -6 -32 -11 -7 -20 -17 -20 -23 0 -10 -30 -12 -83 -7 -15 2 -16 6
-7 22 6 11 17 20 25 20 9 0 15 9 15 23 0 39 20 49 42 21 11 -13 26 -24 34 -24z
m-3856 -5 c0 -27 -2 -28 -49 -19 -21 5 -31 12 -31 25 0 15 8 19 40 19 36 0 40
-2 40 -25z m5930 -84 c0 -11 6 -22 13 -24 7 -4 6 -6 -4 -6 -10 -1 -19 9 -21
24 -3 14 -1 25 3 25 5 0 9 -9 9 -19z m-3370 -51 c0 -5 -4 -10 -10 -10 -5 0
-10 5 -10 10 0 6 5 10 10 10 6 0 10 -4 10 -10z m3124 -140 c6 -32 5 -33 -8
-15 -9 11 -16 31 -16 45 0 33 16 13 24 -30z m-2384 10 c0 -5 -4 -10 -10 -10
-5 0 -10 5 -10 10 0 6 5 10 10 10 6 0 10 -4 10 -10z m1553 -7 c-7 -2 -19 -2
-25 0 -7 3 -2 5 12 5 14 0 19 -2 13 -5z m-15 -37 c-15 -15 -60 -28 -52 -15 3
5 0 9 -6 9 -29 0 2 15 34 17 29 1 34 -1 24 -11z m555 -51 c20 -19 46 -35 56
-35 32 0 49 -10 78 -48 l28 -37 -45 38 c-33 28 -52 37 -81 37 -32 0 -39 4 -50
29 -8 17 -23 34 -34 40 -14 7 -16 10 -5 10 9 1 33 -15 53 -34z m-109 -101 c3
-8 2 -12 -4 -9 -6 3 -10 10 -10 16 0 14 7 11 14 -7z m586 -18 c0 -23 -16 -36
-44 -35 -20 1 -24 3 -11 6 46 10 51 13 35 23 -13 8 -12 10 3 10 9 0 17 -2 17
-4z m-264 -20 c-55 -51 -56 -51 -53 -20 2 25 6 29 33 30 23 0 29 -2 20 -10z
m138 -1 c12 -9 15 -15 7 -15 -8 0 -11 -6 -7 -16 3 -8 2 -12 -4 -9 -6 3 -10 13
-10 21 0 8 -7 14 -16 14 -8 0 -12 5 -9 10 8 13 16 12 39 -5z m-1747 -37 c7 -1
10 -5 7 -10 -3 -4 0 -8 5 -8 40 0 -35 -76 -84 -85 -70 -12 -80 -12 -87 -1 -5
7 -20 7 -53 -2 -62 -17 -79 -15 -100 8 -12 13 -22 17 -30 10 -6 -5 -23 -7 -37
-5 -15 3 -30 1 -33 -5 -9 -15 -47 -12 -71 4 -20 15 -64 11 -64 -4 0 -5 -12 -7
-27 -5 -16 3 -67 5 -115 6 -51 1 -88 5 -88 11 0 6 -6 8 -14 5 -19 -8 -38 16
-30 37 5 14 26 16 138 16 165 1 282 8 321 20 17 5 58 9 93 8 34 0 65 2 69 6 5
5 129 1 200 -6z m1402 -61 c0 -27 -2 -29 -9 -12 -12 28 -12 57 0 50 6 -3 10
-21 9 -38z m-2252 -13 c-3 -3 -12 -4 -19 -1 -8 3 -5 6 6 6 11 1 17 -2 13 -5z
m1941 -174 c-1 -16 -5 -27 -8 -24 -8 9 -7 63 2 58 5 -3 7 -18 6 -34z m127 -59
c3 -5 1 -12 -5 -16 -5 -3 -10 -1 -10 5 0 6 -5 8 -12 4 -7 -4 -8 -3 -4 4 9 14
23 15 31 3z m-837 -80 c-7 -9 -8 -13 -4 -9 5 4 15 0 22 -10 11 -14 16 -15 33
-4 29 17 34 15 28 -9 -6 -21 16 -83 32 -93 5 -4 16 1 24 9 21 20 27 19 27 -6
0 -11 5 -17 10 -14 6 3 10 -1 10 -9 0 -9 -4 -16 -9 -16 -5 0 -12 -8 -14 -17
-3 -13 -5 -11 -6 6 -1 16 -5 21 -16 17 -8 -3 -15 0 -15 6 0 6 -3 8 -7 4 -5 -4
-8 -13 -8 -19 0 -5 -6 -12 -12 -14 -8 -3 -13 4 -13 14 0 10 -13 30 -29 43 -22
20 -27 29 -19 43 5 9 6 22 3 27 -8 13 -32 13 -37 -1 -2 -5 -11 -7 -22 -3 -15
6 -17 14 -12 47 4 23 12 47 18 55 18 21 33 -25 16 -47z m743 46 c-6 -8 -8 -17
-4 -20 3 -4 1 -7 -5 -7 -15 0 -15 13 0 28 16 16 23 15 9 -1z m-614 -49 c-2 -7
0 -21 5 -31 5 -10 7 -26 3 -35 -5 -14 -7 -14 -15 -2 -11 17 -13 64 -3 73 10
11 15 8 10 -5z m-1100 -15 c3 -7 -4 -9 -16 -6 -12 3 -18 9 -15 15 7 11 26 6
31 -9z m93 3 c0 -2 3 -11 6 -20 4 -10 1 -16 -9 -16 -8 0 -17 9 -20 20 -3 13 0
20 9 20 8 0 14 -2 14 -4z m443 -11 c-3 -9 -8 -14 -10 -11 -3 3 -2 9 2 15 9 16
15 13 8 -4z m1147 8 c0 -5 -11 -8 -24 -8 -13 0 -22 3 -19 8 2 4 13 7 24 7 10
0 19 -3 19 -7z m-1762 -54 c-20 -13 -28 -11 -22 5 3 8 12 12 21 9 12 -5 12 -7
1 -14z m182 -13 c0 -14 -29 -31 -38 -21 -6 6 18 35 29 35 5 0 9 -6 9 -14z
m1430 -13 c-4 -16 -13 -40 -20 -55 -11 -24 -11 -31 3 -46 10 -10 17 -22 17
-25 0 -13 -33 -7 -44 8 -19 25 -56 7 -76 -37 -23 -51 -17 -76 18 -74 15 0 33
8 40 16 11 13 11 11 2 -7 -6 -13 -15 -23 -21 -23 -6 0 -7 -5 -3 -11 5 -8 -3
-10 -24 -7 -27 4 -33 0 -50 -33 l-20 -37 22 -11 c18 -9 18 -10 -8 -4 -21 4
-33 1 -42 -12 -14 -19 -15 -16 -27 50 -2 11 -8 19 -14 18 -6 -1 -19 7 -29 18
-14 16 -15 19 -2 14 11 -5 18 4 25 33 12 45 8 56 -24 66 -18 6 -23 3 -24 -11
-1 -16 -2 -16 -6 -1 -2 10 -10 15 -19 11 -10 -4 -14 2 -14 22 0 15 -4 24 -10
20 -5 -3 -10 1 -10 9 0 8 5 18 10 21 6 3 10 15 10 27 0 17 -2 18 -15 8 -19
-16 -19 -10 0 26 10 20 15 23 15 12 0 -24 17 -23 25 2 3 11 9 20 13 21 4 0 15
2 26 4 14 3 17 -1 13 -21 -2 -13 0 -27 5 -30 6 -4 5 -10 -3 -15 -12 -7 -11 -9
0 -9 12 0 12 -2 -1 -12 -9 -7 -18 -22 -20 -32 -2 -14 4 -20 25 -23 29 -4 47 8
62 42 8 19 9 19 12 -2 3 -13 11 -23 19 -23 23 0 124 79 143 111 20 37 32 37
21 2z m-1394 -38 c2 -16 -2 -25 -12 -25 -16 0 -17 5 -8 38 8 27 16 22 20 -13z
m1224 13 c0 -19 -2 -20 -10 -8 -13 19 -13 30 0 30 6 0 10 -10 10 -22z m-1332
-33 c0 -19 -4 -32 -9 -29 -15 9 -9 64 7 64 1 0 2 -16 2 -35z m530 -38 c-3 -23
-5 -24 -21 -12 -16 11 -16 16 -5 34 15 25 31 13 26 -22z m432 29 c0 -2 -7 -6
-15 -10 -8 -3 -15 -1 -15 4 0 6 7 10 15 10 8 0 15 -2 15 -4z m-1341 -20 c10
-12 8 -13 -8 -9 -12 3 -21 9 -21 14 0 14 16 11 29 -5z m1341 -10 c0 -2 -7 -6
-15 -10 -8 -3 -15 -1 -15 4 0 6 7 10 15 10 8 0 15 -2 15 -4z m-850 -35 c0 -9
-4 -21 -9 -26 -5 -6 -11 -21 -13 -35 -3 -14 -4 0 -4 31 0 42 3 56 13 52 7 -3
13 -13 13 -22z m-90 -1 c0 -11 -7 -20 -15 -20 -18 0 -19 12 -3 28 16 16 18 15
18 -8z m989 9 c-7 -4 -17 -5 -22 -2 -4 3 -15 -3 -22 -13 -13 -17 -14 -17 -15
-2 0 18 13 25 49 25 16 0 19 -2 10 -8z m-1406 -25 c26 -35 17 -38 -11 -3 -13
16 -20 29 -15 29 4 0 16 -12 26 -26z m461 -8 c-7 -30 -24 -35 -24 -8 0 18 20
45 27 38 2 -2 1 -15 -3 -30z m996 24 c0 -5 7 -10 16 -10 8 0 12 -4 9 -10 -3
-5 -1 -10 6 -10 7 0 10 -3 6 -6 -3 -4 -20 5 -37 20 -21 17 -26 26 -16 26 9 0
16 -4 16 -10z m-534 -20 c18 0 18 -26 0 -33 -15 -6 -27 13 -25 41 0 11 2 12 6
5 2 -7 11 -13 19 -13z m-971 -20 c-25 -11 -58 -12 -52 -2 3 4 20 8 39 9 26 1
29 0 13 -7z m500 -29 c3 -5 1 -12 -5 -16 -5 -3 -10 1 -10 9 0 18 6 21 15 7z
m1147 -16 c3 -14 1 -25 -3 -25 -5 0 -9 11 -9 25 0 14 2 25 4 25 2 0 6 -11 8
-25z m-1412 -2 c0 -9 -3 -13 -7 -10 -3 4 -12 2 -19 -4 -9 -7 -21 -6 -41 5 -16
9 -21 15 -12 16 8 0 21 -6 28 -12 11 -11 15 -10 24 5 15 22 27 22 27 0z m1360
-3 c8 -5 11 -10 5 -10 -5 0 -17 5 -25 10 -8 5 -10 10 -5 10 6 0 17 -5 25 -10z
m-170 -19 c0 -4 -6 -8 -14 -8 -8 0 -12 6 -9 14 5 13 23 9 23 -6z m32 2 c-6 -2
-9 -10 -6 -15 4 -7 2 -8 -4 -4 -18 11 -14 26 6 25 10 0 12 -3 4 -6z m76 0
c-10 -2 -26 -2 -35 0 -10 3 -2 5 17 5 19 0 27 -2 18 -5z m51 -7 c9 -11 9 -16
0 -22 -8 -4 -9 -3 -5 4 4 7 1 12 -8 12 -9 0 -16 5 -16 10 0 14 16 12 29 -4z
m-1449 -33 c0 -6 10 -15 23 -19 28 -9 37 -22 37 -56 0 -19 5 -28 16 -28 9 0
12 -5 8 -12 -5 -8 -1 -9 12 -5 18 7 18 6 -1 -8 -18 -15 -21 -14 -37 6 -10 11
-15 25 -12 31 3 5 3 20 0 34 -6 23 -9 24 -61 19 -34 -3 -55 -1 -55 5 0 5 11
10 24 10 34 0 42 17 19 42 -18 21 -18 21 5 7 12 -8 22 -19 22 -26z m-130 17
c17 -5 19 -8 8 -9 -10 -1 -18 -5 -18 -10 0 -5 -9 -7 -20 -4 -11 3 -20 12 -20
19 0 15 12 16 50 4z m242 -32 c8 8 8 16 -2 27 -10 13 -9 15 9 15 22 0 29 -24
10 -35 -6 -4 -9 -23 -7 -43 2 -20 -2 -37 -8 -39 -7 -2 -10 5 -7 21 4 21 2 24
-15 20 -15 -5 -22 2 -31 27 -16 47 -14 51 15 22 18 -18 29 -22 36 -15z m684
18 c5 -23 48 -72 44 -51 -5 22 2 20 39 -14 22 -20 38 -38 36 -40 -3 -2 -11 2
-19 8 -8 7 -24 10 -36 6 -11 -4 -20 -2 -20 4 0 6 -6 11 -14 11 -8 0 -23 14
-33 30 -9 17 -21 30 -25 30 -4 0 -8 5 -8 11 0 5 5 7 12 3 8 -5 9 -2 5 9 -3 10
-2 17 3 17 5 0 12 -11 16 -24z m172 -41 c-3 -3 -9 2 -12 12 -6 14 -5 15 5 6 7
-7 10 -15 7 -18z m-801 -7 c-3 -8 -6 -5 -6 6 -1 11 2 17 5 13 3 -3 4 -12 1
-19z m827 -13 c-4 -8 -10 -12 -15 -9 -11 6 -2 24 11 24 5 0 7 -7 4 -15z m331
5 c4 -6 12 -7 18 -4 7 4 9 4 5 -1 -4 -4 -2 -15 4 -24 7 -9 1 -6 -12 5 -14 12
-32 24 -40 27 -12 4 -12 6 2 6 9 1 20 -4 23 -9z m383 -27 c-15 -18 -21 -9 -13
18 6 16 9 18 16 8 4 -8 3 -19 -3 -26z m-1704 0 c3 -7 -1 -13 -9 -13 -8 0 -15
5 -15 10 0 6 -4 10 -10 10 -5 0 -7 -6 -4 -14 4 -11 0 -13 -15 -9 -20 5 -20 6
-4 18 22 16 51 15 57 -2z m-224 -12 c-10 -20 -30 -37 -30 -26 0 11 25 45 33
45 4 0 3 -9 -3 -19z m257 -6 c0 -8 -4 -12 -9 -9 -4 3 -8 9 -8 15 0 5 4 9 8 9
5 0 9 -7 9 -15z m1433 11 c0 -3 -4 -8 -10 -11 -5 -3 -10 -1 -10 4 0 6 5 11 10
11 6 0 10 -2 10 -4z m-1560 -16 c0 -5 -7 -7 -15 -4 -8 4 -15 8 -15 10 0 2 7 4
15 4 8 0 15 -4 15 -10z m1266 -2 c3 -4 -1 -5 -10 -4 -8 1 -18 5 -22 8 -3 4 1
5 10 4 8 -1 18 -5 22 -8z m793 -66 c26 -39 40 -70 36 -80 -5 -13 -8 -14 -19
-1 -17 17 -62 105 -71 139 -9 32 0 22 54 -58z m-1950 32 c-15 -18 -22 -13 -13
10 3 9 10 13 16 10 5 -3 4 -12 -3 -20z m853 -14 c5 0 6 6 2 13 -5 8 -3 8 9 -2
9 -7 14 -17 11 -22 -3 -5 -1 -9 3 -9 5 0 10 -11 11 -26 1 -14 -2 -23 -8 -19
-6 3 -10 14 -10 23 0 9 -14 26 -30 37 -16 11 -30 27 -29 35 0 10 5 8 16 -7 8
-13 20 -23 25 -23z m-602 20 c0 -5 -8 -10 -17 -10 -15 0 -16 2 -3 10 19 12 20
12 20 0z m967 -15 c0 -10 -6 -11 -24 -2 -12 5 -23 13 -23 17 0 4 11 5 23 3 13
-3 24 -11 24 -18z m-191 3 c4 -6 3 -8 -4 -4 -6 3 -13 3 -16 -2 -5 -9 29 -43
37 -36 2 3 7 -2 10 -11 6 -14 3 -14 -22 0 -16 8 -31 22 -35 31 -11 28 14 47
30 22z m274 -15 c0 -12 -3 -14 -8 -7 -4 7 -18 14 -32 17 -21 4 -20 4 8 6 24 1
32 -3 32 -16z m-1347 -8 c-3 -9 -8 -14 -10 -11 -3 3 -2 9 2 15 9 16 15 13 8
-4z m1701 -15 c12 0 16 -5 11 -19 -3 -11 1 -24 11 -32 10 -8 31 -32 47 -54 17
-22 27 -32 24 -22 -4 9 -2 17 4 17 7 0 10 -14 7 -35 -2 -19 -1 -35 3 -35 4 0
5 -9 2 -20 -3 -10 -8 -19 -12 -18 -13 2 -46 -16 -55 -30 -6 -10 -10 -11 -15
-3 -5 7 -12 2 -21 -14 -8 -14 -20 -23 -27 -21 -7 3 -13 0 -13 -7 0 -8 -3 -7
-9 2 -7 11 -13 12 -24 3 -7 -6 -22 -13 -33 -15 -10 -1 -24 -6 -30 -9 -6 -4
-40 -9 -76 -12 -136 -10 -450 -101 -540 -156 -28 -17 -51 -30 -53 -28 -7 9
-24 149 -19 161 3 10 33 19 87 27 50 7 106 23 142 40 33 16 78 32 100 35 22 4
48 8 57 11 9 3 25 7 36 9 41 7 130 67 196 130 38 36 83 73 99 82 17 8 38 22
46 30 13 13 16 13 26 -1 7 -9 20 -16 29 -16z m-1660 3 c-20 -15 -34 -17 -34
-5 0 14 11 21 32 19 18 -1 18 -2 2 -14z m-274 -7 c0 -3 -4 -8 -10 -11 -5 -3
-10 -1 -10 4 0 6 5 11 10 11 6 0 10 -2 10 -4z m37 -12 c-3 -3 -12 -4 -19 -1
-8 3 -5 6 6 6 11 1 17 -2 13 -5z m857 -29 c-4 -8 -13 -15 -22 -15 -13 0 -12 3
4 15 24 18 25 18 18 0z m561 -14 c-3 -6 -11 -11 -16 -11 -5 0 -4 6 3 14 14 16
24 13 13 -3z m-1398 3 c-3 -3 -12 -4 -19 -1 -8 3 -5 6 6 6 11 1 17 -2 13 -5z
m758 -35 c10 17 25 13 19 -4 -5 -11 -2 -13 10 -9 9 3 16 12 16 20 0 8 5 14 12
14 6 0 8 -3 5 -6 -3 -4 -2 -15 4 -26 14 -25 4 -35 -17 -17 -14 12 -19 10 -40
-15 -13 -15 -22 -32 -19 -37 4 -5 3 -9 -2 -9 -16 0 -30 16 -38 40 -7 23 -7 24
10 10 17 -14 18 -13 11 25 -6 36 -5 38 8 22 9 -12 16 -14 21 -8z m185 -25 c0
-8 -4 -14 -10 -14 -5 0 -10 9 -10 21 0 11 5 17 10 14 6 -3 10 -13 10 -21z
m505 16 c3 -5 2 -10 -4 -10 -5 0 -13 5 -16 10 -3 6 -2 10 4 10 5 0 13 -4 16
-10z m-548 -17 c-4 -3 -2 -12 4 -20 12 -14 9 -16 -15 -7 -16 6 -11 34 7 34 6
0 7 -3 4 -7z m1138 -3 c-3 -5 -11 -10 -16 -10 -6 0 -7 5 -4 10 3 6 11 10 16
10 6 0 7 -4 4 -10z m-1172 -34 c9 1 17 -2 17 -8 0 -15 -43 -5 -47 12 -3 10 -2
11 4 4 4 -6 16 -10 26 -8z m1151 -2 c7 -19 -1 -54 -13 -54 -4 0 -7 16 -7 35 0
37 10 46 20 19z m-1087 -19 c0 -8 -4 -12 -9 -9 -4 3 -8 9 -8 15 0 5 4 9 8 9 5
0 9 -7 9 -15z m-160 -55 c-11 -39 -29 -58 -22 -22 2 9 4 27 4 40 1 12 7 22 15
22 11 0 11 -8 3 -40z m93 -2 c0 -4 -12 -8 -27 -10 -18 -2 -29 -10 -32 -23 -2
-11 -8 -23 -13 -26 -5 -3 -10 -16 -11 -27 -1 -12 -5 -22 -10 -22 -15 0 4 64
27 90 35 41 50 50 58 37 4 -7 8 -15 8 -19z m-60 12 c0 -5 -2 -10 -4 -10 -3 0
-8 5 -11 10 -3 6 -1 10 4 10 6 0 11 -4 11 -10z m117 -51 l28 -1 -25 -8 c-23
-7 -24 -8 -5 -14 54 -20 66 -27 60 -36 -4 -7 -14 -5 -26 4 -23 16 -58 10 -76
-12 -9 -11 -13 -12 -13 -3 0 17 -42 10 -48 -9 -5 -13 -3 -13 11 -1 18 14 20
12 11 -13 -3 -9 -10 -14 -14 -11 -13 8 -31 -21 -24 -39 3 -9 12 -16 20 -16 19
0 54 36 54 55 0 8 5 15 11 15 5 0 7 -4 4 -10 -3 -5 0 -7 8 -5 7 3 24 1 38 -4
23 -9 23 -10 -7 -10 -27 -1 -95 -40 -70 -41 5 0 3 -6 -3 -14 -8 -10 -9 -16 -1
-21 19 -11 10 -22 -18 -22 -25 0 -29 6 -44 56 -15 50 -15 56 -1 66 9 7 16 25
15 42 0 26 3 30 28 30 16 0 27 -5 23 -10 -3 -5 3 -7 13 -5 11 2 19 10 19 18 0
8 -6 14 -12 13 -7 -2 -13 5 -13 15 0 28 13 36 22 12 5 -13 17 -20 35 -21z m77
-4 c6 -28 5 -29 -8 -11 -9 11 -20 15 -28 10 -7 -4 -4 2 6 14 22 26 21 26 30
-13z m831 -54 c-3 -6 -14 -11 -23 -11 -13 0 -13 2 4 14 21 15 30 14 19 -3z
m-918 -127 c13 -4 21 -10 18 -14 -6 -9 -53 -1 -61 11 -6 10 11 11 43 3z m-32
-66 c-3 -13 -7 -36 -8 -52 -1 -16 -7 -31 -13 -33 -19 -6 -26 29 -9 47 8 9 15
23 15 32 0 14 9 28 17 28 2 0 1 -10 -2 -22z m41 -156 c-18 -16 -18 -16 -6 6 6
13 14 21 18 18 3 -4 -2 -14 -12 -24z m-276 -102 c6 -11 8 -20 4 -20 -3 0 -1
-7 6 -15 11 -14 10 -14 -14 -5 -35 13 -36 13 -36 -4 0 -8 5 -16 12 -18 7 -3 9
-12 4 -23 -6 -17 -8 -17 -23 5 -15 21 -15 25 1 51 10 16 14 34 11 39 -3 6 1
10 9 10 8 0 20 -9 26 -20z m181 -216 c-4 -16 -15 -30 -24 -32 -15 -3 -15 1 4
33 25 41 32 41 20 -1z m-92 -79 c22 0 23 -19 1 -32 -16 -11 -18 -10 -14 2 4 8
-1 18 -10 21 -9 3 -13 11 -10 16 4 6 9 6 13 2 3 -5 12 -9 20 -9z"/>
<path d="M2838 3803 c6 -2 18 -2 25 0 6 3 1 5 -13 5 -14 0 -19 -2 -12 -5z"/>
<path d="M5363 2329 c-7 -7 -13 -21 -13 -31 0 -10 -4 -18 -9 -18 -5 0 -8 -19
-7 -42 1 -45 18 -56 25 -16 1 13 7 26 13 29 5 3 8 25 6 48 -2 34 -5 40 -15 30z"/>
<path d="M5453 2182 c-32 -20 -45 -128 -17 -139 19 -7 64 16 64 34 0 7 5 13
10 13 6 0 5 13 -3 33 -8 17 -13 40 -11 50 2 18 -21 23 -43 9z"/>
<path d="M5590 1690 c0 -5 5 -10 11 -10 5 0 7 5 4 10 -3 6 -8 10 -11 10 -2 0
-4 -4 -4 -10z"/>
<path d="M5443 1623 c-57 -5 -55 -19 2 -19 30 0 45 5 45 13 0 7 -1 12 -2 11
-2 -1 -22 -3 -45 -5z"/>
<path d="M5641 3073 c-12 -10 -23 -25 -24 -33 -2 -8 -6 -21 -11 -28 -5 -8 -4
-18 3 -25 16 -16 66 4 66 27 0 10 10 22 22 27 15 5 21 14 17 24 -3 8 -10 15
-14 15 -5 0 -15 2 -23 5 -7 3 -24 -2 -36 -12z"/>
<path d="M5744 3082 c-6 -4 -14 -19 -18 -34 -3 -16 -11 -28 -16 -28 -16 0 -11
-27 6 -34 29 -11 53 -6 63 12 7 13 6 23 -1 30 -9 9 -9 12 0 12 7 0 12 7 12 15
0 17 -32 36 -46 27z"/>
<path d="M5821 3052 c-15 -22 -17 -32 -9 -40 18 -18 38 -14 38 6 1 16 1 16 14
0 17 -24 38 -23 54 2 10 17 9 22 -11 34 -46 29 -64 29 -86 -2z"/>
<path d="M5406 2961 c-12 -13 -16 -27 -11 -38 6 -17 7 -17 21 2 15 20 15 20
30 0 12 -16 17 -17 23 -7 5 8 8 23 7 35 -1 30 -46 35 -70 8z"/>
<path d="M5513 2960 c-22 -9 -27 -20 -24 -46 1 -6 -6 -17 -14 -24 -21 -17 -19
-47 5 -60 17 -9 20 -7 26 15 3 14 1 31 -5 39 -10 11 -7 16 11 22 25 8 47 32
48 52 0 14 -15 15 -47 2z"/>
<path d="M5334 2923 c-3 -10 -10 -28 -16 -40 -14 -28 -3 -42 30 -40 22 2 28 8
30 31 3 26 1 28 -20 23 -21 -5 -21 -5 -5 7 9 7 17 18 17 25 0 18 -30 13 -36
-6z"/>
<path d="M5544 2900 c-4 -16 -11 -30 -16 -30 -6 0 -8 -9 -5 -20 3 -11 2 -20
-3 -20 -11 0 -19 -37 -13 -61 5 -18 11 -20 42 -14 47 8 55 18 47 50 -5 21 -12
26 -27 22 -13 -3 -23 2 -30 15 -9 18 -9 20 4 15 25 -9 58 24 51 51 -10 34 -43
29 -50 -8z"/>
<path d="M5416 2884 c-21 -21 -20 -34 3 -34 17 0 31 18 31 41 0 14 -17 11 -34
-7z"/>
<path d="M5156 2789 c-35 -38 -43 -62 -21 -60 6 1 10 10 10 21 1 23 21 47 32
37 4 -4 1 -13 -5 -19 -7 -7 -12 -18 -12 -26 0 -12 3 -12 15 -2 13 10 15 9 15
-9 0 -24 10 -27 28 -9 9 9 12 8 12 -5 0 -17 9 -21 40 -18 8 1 5 -5 -8 -12 -12
-7 -19 -17 -15 -22 4 -5 1 -4 -8 3 -13 10 -19 9 -32 -6 -8 -9 -15 -20 -15 -25
0 -4 -3 -23 -7 -43 -4 -22 -2 -41 5 -49 7 -8 9 -23 5 -35 -3 -11 -2 -20 4 -20
23 0 41 14 41 32 0 10 -4 16 -10 13 -5 -3 -10 -2 -10 4 0 5 6 14 14 18 8 4 16
17 20 28 3 11 3 -2 1 -30 -4 -47 -3 -48 9 -25 18 33 30 90 19 90 -5 0 -10 12
-11 27 -2 29 18 49 30 30 4 -7 10 -3 17 13 5 14 10 21 11 15 0 -5 4 -4 9 4 8
12 13 12 24 3 11 -10 17 -9 27 3 7 9 10 18 7 22 -8 7 11 33 24 33 5 0 6 -6 3
-14 -7 -18 38 -26 60 -10 16 12 16 14 -3 33 -24 24 -47 27 -54 9 -3 -7 -6 -3
-6 10 -1 19 -6 23 -28 20 -20 -2 -29 -9 -31 -25 -3 -17 1 -21 11 -17 8 3 18 1
22 -5 3 -7 -2 -11 -14 -11 -13 0 -21 -7 -21 -17 0 -15 -2 -14 -15 3 -9 12 -14
14 -15 6 0 -7 -4 -10 -10 -7 -5 3 -7 0 -4 -8 4 -10 -2 -14 -20 -14 -19 0 -26
5 -26 18 0 11 7 19 15 19 8 0 15 4 15 9 0 4 11 6 25 3 20 -3 25 0 25 17 0 23
-35 30 -43 9 -4 -10 -6 -10 -6 0 -1 6 -5 12 -11 12 -13 0 -50 -37 -50 -49 0
-6 -5 -13 -12 -17 -7 -5 -9 -2 -5 8 8 22 -3 30 -21 15 -13 -10 -14 -9 -4 10
14 26 16 53 3 53 -5 0 -25 -18 -45 -41z"/>
<path d="M5095 2810 c3 -5 -1 -10 -9 -10 -9 0 -16 -4 -16 -9 0 -11 19 -9 38 2
13 9 7 27 -9 27 -6 0 -7 -4 -4 -10z"/>
<path d="M5124 2811 c3 -4 -3 -16 -14 -26 -11 -10 -20 -26 -20 -35 0 -10 -8
-28 -18 -40 -16 -20 -20 -21 -34 -7 -14 14 -16 13 -27 -9 -13 -30 -14 -45 -1
-24 8 13 10 12 10 -2 0 -44 50 0 95 85 29 53 33 67 20 67 -9 0 -14 -4 -11 -9z"/>
<path d="M4972 2736 c7 -8 15 -12 17 -11 5 6 -10 25 -20 25 -5 0 -4 -6 3 -14z"/>
<path d="M5036 2727 c3 -10 9 -15 12 -12 3 3 0 11 -7 18 -10 9 -11 8 -5 -6z"/>
<path d="M6190 2720 c0 -5 5 -10 11 -10 5 0 7 5 4 10 -3 6 -8 10 -11 10 -2 0
-4 -4 -4 -10z"/>
<path d="M5087 2683 c-11 -11 -8 -63 4 -63 5 0 8 -4 5 -8 -9 -15 11 -33 43
-37 25 -3 31 -1 27 11 -3 8 0 14 6 14 6 0 9 3 5 6 -3 3 -2 16 3 28 13 35 -5
56 -49 56 -21 0 -41 -3 -44 -7z m53 -52 c0 -10 -3 -21 -7 -24 -9 -9 -32 25
-26 39 7 18 33 5 33 -15z"/>
<path d="M5980 2670 c0 -5 7 -10 15 -10 8 0 15 5 15 10 0 6 -7 10 -15 10 -8 0
-15 -4 -15 -10z"/>
<path d="M4960 2609 c-19 -23 -40 -55 -46 -73 -11 -29 -44 -50 -44 -27 0 7
-12 4 -27 -6 -31 -20 -44 -34 -38 -43 2 -4 -10 -23 -26 -44 -36 -43 -33 -63
11 -64 25 -1 35 6 51 31 25 42 24 51 -6 67 -19 10 -22 16 -14 27 13 15 39 18
39 3 0 -41 79 39 81 82 1 17 3 18 6 6 7 -27 16 -22 41 22 40 71 25 82 -28 19z
m-140 -203 c0 -15 -7 -26 -20 -29 -23 -6 -28 21 -8 41 18 18 28 14 28 -12z"/>
<path d="M5969 2633 c-13 -16 -12 -17 4 -4 16 13 21 21 13 21 -2 0 -10 -8 -17
-17z"/>
<path d="M5034 2628 c-35 -17 -73 -118 -44 -118 5 0 7 -7 4 -15 -3 -8 -3 -19
0 -24 11 -18 34 0 62 47 24 40 25 47 11 57 -10 7 -13 20 -10 38 6 30 6 30 -23
15z m11 -98 c-13 -41 -51 -6 -41 36 l7 27 20 -22 c13 -14 18 -29 14 -41z"/>
<path d="M4933 2509 c-6 -6 -8 -29 -6 -52 4 -34 1 -46 -16 -61 -21 -19 -21
-19 -21 12 0 17 5 34 10 37 6 3 10 11 10 17 0 21 -28 -13 -32 -40 -3 -15 -8
-34 -11 -42 -4 -8 -3 -22 2 -30 8 -12 13 -12 30 4 44 40 69 90 64 129 -5 39
-12 44 -30 26z"/>
<path d="M4408 2478 c-16 -5 -28 -14 -28 -19 0 -16 26 -10 45 11 10 11 16 20
14 19 -2 0 -16 -5 -31 -11z"/>
<path d="M4455 2470 c-21 -23 -12 -39 13 -24 19 12 29 44 14 44 -5 0 -17 -9
-27 -20z"/>
<path d="M4775 2470 c-3 -5 -3 -10 1 -10 4 0 0 -6 -10 -13 -11 -8 -17 -19 -15
-26 3 -8 13 -3 27 13 12 14 17 26 11 26 -5 0 -7 5 -4 10 3 6 4 10 1 10 -3 0
-8 -4 -11 -10z"/>
<path d="M4530 2460 c-11 -6 -12 -12 -4 -20 13 -13 46 -2 41 13 -5 15 -20 18
-37 7z"/>
<path d="M4595 2450 c-3 -5 3 -10 15 -10 12 0 18 5 15 10 -3 6 -10 10 -15 10
-5 0 -12 -4 -15 -10z"/>
<path d="M4406 2422 c-9 -15 -10 -76 -1 -102 8 -28 34 -60 47 -60 15 0 8 37
-10 53 -23 21 -27 71 -7 87 8 7 15 16 15 21 0 11 -37 12 -44 1z"/>
<path d="M4964 2404 c-14 -20 -15 -27 -5 -34 10 -5 12 -22 7 -58 -3 -28 -2
-53 3 -57 15 -9 51 49 40 66 -5 7 -9 35 -9 62 0 53 -11 59 -36 21z"/>
<path d="M3746 2413 c-4 -4 -21 -12 -39 -18 -18 -5 -32 -15 -32 -21 0 -15 -34
-47 -64 -61 -23 -10 -23 -12 -6 -13 19 -1 18 -2 -2 -10 -13 -5 -23 -16 -23
-24 0 -8 -5 -16 -11 -18 -17 -6 -16 -50 0 -70 13 -15 17 -13 42 25 23 35 25
43 13 50 -8 4 -19 5 -24 2 -6 -3 -10 -2 -10 3 0 5 9 12 20 15 11 3 20 12 20
21 0 9 8 16 19 16 21 0 37 15 24 23 -5 2 -2 2 5 1 7 -2 17 8 22 22 6 14 15 22
21 18 7 -4 7 -10 1 -16 -11 -11 -4 -58 9 -58 5 0 7 11 3 25 -5 20 -3 25 12 24
11 0 14 -3 7 -6 -20 -7 -15 -25 5 -21 20 4 25 68 5 68 -7 0 -10 7 -7 15 7 16
2 20 -10 8z m-126 -170 c0 -5 -9 -19 -19 -32 -12 -16 -21 -20 -25 -12 -4 6 -3
11 3 11 5 0 13 9 16 20 6 19 25 29 25 13z"/>
<path d="M3495 2380 c-10 -16 28 -75 52 -78 27 -4 38 25 13 33 -11 3 -28 17
-39 31 -12 15 -22 21 -26 14z"/>
<path d="M4909 2331 c-8 -16 -13 -48 -11 -75 4 -41 7 -46 27 -46 34 0 43 21
17 38 -25 17 -28 50 -7 78 18 24 19 34 1 34 -7 0 -20 -13 -27 -29z"/>
<path d="M3590 2329 c0 -5 5 -7 10 -4 6 3 10 8 10 11 0 2 -4 4 -10 4 -5 0 -10
-5 -10 -11z"/>
<path d="M3682 2313 c-14 -14 -10 -43 7 -43 10 0 21 49 12 54 -3 2 -12 -3 -19
-11z"/>
<path d="M4740 2300 c0 -29 1 -30 23 -16 19 12 24 12 34 1 8 -9 9 -16 3 -20
-13 -8 -13 -35 0 -35 6 0 15 11 20 24 5 13 14 27 19 31 25 15 11 36 -21 34
-18 -1 -43 1 -55 5 -21 7 -23 4 -23 -24z"/>
<path d="M4837 2274 c-4 -4 -7 -27 -7 -51 0 -23 -4 -43 -9 -43 -5 0 -16 -2
-24 -6 -10 -3 -18 8 -27 40 -15 55 -32 61 -24 10 11 -69 14 -78 28 -93 14 -13
18 -13 36 4 11 10 20 24 20 32 0 7 6 13 14 13 17 0 24 22 22 64 -1 29 -15 43
-29 30z"/>
<path d="M3528 2208 c-3 -7 -1 -23 3 -35 5 -14 4 -23 -4 -27 -9 -3 -8 -5 1 -5
7 -1 10 -5 7 -11 -3 -5 -2 -10 3 -10 16 0 20 51 7 77 -8 16 -14 20 -17 11z"/>
<path d="M4330 2167 c0 -7 4 -17 10 -23 5 -5 11 -28 14 -51 3 -34 0 -42 -15
-46 -20 -5 -26 -41 -9 -52 6 -3 10 -1 10 5 0 7 7 10 15 6 11 -4 15 2 15 20 0
14 4 23 8 20 12 -7 5 65 -8 78 -5 5 -10 20 -10 33 0 14 -6 23 -15 23 -8 0 -15
-6 -15 -13z"/>
<path d="M4870 2170 c0 -5 7 -10 15 -10 8 0 15 5 15 10 0 6 -7 10 -15 10 -8 0
-15 -4 -15 -10z"/>
<path d="M4290 2121 c-14 -27 -13 -41 5 -41 10 0 15 10 15 30 0 35 -5 38 -20
11z"/>
<path d="M3492 2119 c2 -7 10 -15 17 -17 8 -3 12 1 9 9 -2 7 -10 15 -17 17 -8
3 -12 -1 -9 -9z"/>
<path d="M4320 2095 c0 -8 5 -15 10 -15 6 0 10 7 10 15 0 8 -4 15 -10 15 -5 0
-10 -7 -10 -15z"/>
<path d="M4314 1367 c3 -10 6 -32 6 -48 0 -16 5 -29 11 -29 14 0 3 70 -13 85
-8 7 -9 4 -4 -8z"/>
<path d="M4260 1322 c0 -13 7 -25 15 -29 26 -9 28 4 6 28 l-21 23 0 -22z"/>
<path d="M6106 1322 c-3 -5 -22 -8 -43 -6 -40 3 -87 -17 -97 -41 -3 -8 -11
-14 -18 -13 -7 2 -20 -12 -28 -29 -18 -38 -37 -42 -50 -10 -5 12 -9 16 -9 9
-1 -9 -6 -10 -19 -3 -11 6 -24 6 -33 0 -7 -5 -24 -9 -36 -9 -14 0 -23 -6 -23
-15 0 -21 -35 -36 -62 -26 -25 9 -48 5 -48 -10 0 -5 3 -8 8 -7 4 1 17 -3 28
-10 12 -6 24 -9 27 -6 3 3 16 -2 29 -10 14 -9 28 -13 32 -9 4 4 4 0 0 -10 -5
-13 -2 -16 10 -11 21 8 20 -6 -1 -22 -10 -7 -14 -16 -9 -21 5 -4 11 -2 13 5 3
6 9 10 14 6 5 -3 9 2 9 10 0 18 16 21 25 6 3 -5 15 -10 26 -10 11 0 30 -6 42
-14 12 -8 38 -17 57 -21 48 -10 82 -29 127 -70 35 -32 39 -33 55 -18 10 9 21
34 24 55 5 28 11 38 23 37 9 -1 28 4 43 11 41 19 93 -8 109 -58 6 -20 14 -41
16 -45 11 -18 33 19 54 86 11 40 24 79 27 87 3 8 4 18 4 23 -1 4 3 7 8 7 6 0
10 8 10 17 0 13 -3 14 -12 5 -9 -9 -16 -6 -30 16 -13 20 -18 23 -18 10 0 -10
-4 -18 -10 -18 -5 0 -10 6 -10 14 0 18 -38 25 -107 19 -49 -3 -54 -2 -43 12 9
11 9 15 1 15 -6 0 -14 -7 -17 -15 -4 -8 -10 -12 -15 -9 -12 7 -49 -5 -49 -17
0 -5 14 -12 30 -15 39 -8 42 -45 5 -62 -14 -6 -25 -16 -25 -21 0 -14 -33 -1
-43 16 -5 7 -12 11 -18 8 -5 -4 -9 1 -9 10 0 9 4 14 9 10 24 -14 32 64 10 92
-11 12 -10 14 6 11 14 -2 19 4 22 29 4 30 -10 53 -21 35z m-28 -61 c-3 -16
-17 -31 -30 -31 -10 0 -11 54 -1 63 10 11 34 -14 31 -32z"/>
<path d="M6472 1323 c-7 -3 -19 -18 -27 -34 -14 -26 -14 -29 6 -39 28 -16 49
4 49 46 0 34 -3 37 -28 27z"/>
<path d="M6583 1260 c-30 -12 -29 -18 8 -85 39 -72 35 -83 -30 -79 -33 3 -51
0 -51 -7 0 -6 -6 -9 -14 -6 -8 3 -20 -1 -26 -9 -10 -11 -10 -14 1 -14 12 0 12
-2 0 -9 -24 -15 -1 -33 34 -27 23 5 36 2 45 -9 16 -19 62 -12 102 16 14 11 33
16 41 13 9 -3 25 -1 36 6 25 13 59 72 39 68 -7 -2 -13 8 -15 22 -1 14 0 17 3
7 3 -9 9 -15 14 -12 14 9 70 -26 70 -43 -1 -15 -2 -15 -11 1 -6 9 -14 15 -20
12 -13 -9 -11 -35 3 -32 6 1 14 -9 18 -23 4 -17 8 -21 14 -12 4 6 4 17 0 24
-4 7 -3 8 4 4 7 -4 12 -13 12 -20 0 -13 26 -27 77 -41 12 -3 31 -1 43 5 17 9
20 20 20 86 l0 75 -42 -5 c-24 -2 -49 -5 -55 -5 -7 -1 -13 -7 -13 -15 0 -20
-27 -28 -34 -9 -3 8 -4 19 0 24 7 12 -3 11 -25 -3 -15 -9 -24 -7 -47 9 -27 18
-64 21 -64 4 0 -4 -10 -8 -22 -8 -13 -1 -25 -8 -27 -14 -2 -7 -9 3 -15 22 -6
19 -15 32 -20 31 -5 -2 -13 2 -17 10 -14 22 -10 31 8 17 15 -12 16 -12 10 4
-4 10 -7 23 -7 28 0 11 -18 11 -47 -1z m17 -25 c0 -8 -7 -15 -15 -15 -9 0 -12
6 -9 15 4 8 10 15 15 15 5 0 9 -7 9 -15z m116 -114 c-9 -14 -33 -14 -42 1 -4
6 -3 8 3 5 6 -4 14 1 17 10 5 12 10 13 17 6 6 -6 8 -16 5 -22z"/>
<path d="M4240 1222 c0 -13 5 -32 10 -43 13 -24 42 -25 38 -1 -1 9 2 24 7 32
7 13 6 13 -7 2 -14 -11 -19 -9 -32 10 l-16 22 0 -22z"/>
<path d="M4211 1164 c0 -11 3 -14 6 -6 3 7 2 16 -1 19 -3 4 -6 -2 -5 -13z"/>
<path d="M6466 1165 c-6 -18 2 -45 15 -45 5 0 9 14 9 30 0 32 -14 40 -24 15z"/>
<path d="M70 1130 c-13 -31 -37 -39 -58 -18 -10 10 -12 -3 -10 -67 l3 -80 33
-3 c17 -2 32 -8 32 -13 0 -17 52 -31 76 -20 18 8 26 5 45 -15 l24 -25 21 27
c21 25 22 26 28 6 10 -30 34 -34 59 -9 20 20 87 34 87 18 0 -3 16 -7 36 -8 20
-1 42 -7 47 -12 16 -16 27 -14 27 4 0 12 9 15 36 13 22 -1 39 3 44 12 5 8 12
11 16 7 12 -11 33 13 27 31 -5 14 -3 15 8 5 7 -7 21 -13 30 -13 10 0 24 -9 32
-21 9 -13 17 -16 22 -10 3 6 17 11 29 11 13 0 29 7 36 15 17 20 32 19 58 -5
12 -12 22 -16 22 -10 0 5 6 10 14 10 8 0 16 5 18 11 2 7 22 6 63 -2 91 -17
134 -15 151 10 8 11 21 18 29 15 11 -4 15 1 15 17 l0 24 19 -24 19 -25 -5 27
c-3 15 -11 27 -18 27 -7 0 -23 10 -37 23 -13 12 -35 24 -49 26 -13 1 -32 7
-41 12 -19 10 -45 3 -71 -20 -17 -14 -21 -14 -49 2 -33 19 -68 23 -68 7 0 -6
-12 -4 -29 5 -23 11 -31 12 -34 2 -4 -9 -6 -9 -6 1 -1 10 -6 10 -21 2 -11 -6
-26 -10 -33 -9 -6 0 -22 -2 -35 -6 -23 -8 -23 -8 -4 -29 25 -27 35 -76 15 -76
-8 0 -12 4 -8 9 3 5 1 12 -5 16 -5 3 -10 15 -10 25 0 10 -4 22 -10 25 -6 3 -8
-2 -5 -12 3 -10 -2 -3 -10 15 -8 17 -19 32 -24 32 -5 0 -12 8 -15 18 -3 9 -3
4 0 -13 3 -16 5 -36 6 -42 1 -7 5 -13 10 -13 4 0 8 -5 8 -11 0 -5 -4 -7 -10
-4 -5 3 -10 1 -10 -5 0 -6 -4 -8 -10 -5 -5 3 -10 15 -10 26 0 12 -7 19 -20 19
-11 0 -20 5 -20 12 0 6 -3 8 -6 5 -4 -4 -1 -13 6 -22 16 -19 1 -19 -23 0 -11
7 -25 11 -33 8 -8 -3 -14 0 -14 7 0 7 -7 10 -15 6 -8 -3 -15 -1 -15 3 0 5 -8
8 -17 7 -10 -2 -28 4 -40 12 -14 8 -23 10 -23 4 0 -21 -40 -23 -68 -4 -32 24
-62 14 -62 -20 0 -29 -18 -11 -29 29 -6 20 -5 35 1 41 7 7 2 10 -17 7 -16 -1
-40 -16 -55 -34 -15 -17 -35 -31 -43 -31 -20 0 -41 36 -33 56 11 28 -12 13
-24 -16z m160 -46 c0 -8 -4 -12 -10 -9 -5 3 -10 10 -10 16 0 5 5 9 10 9 6 0
10 -7 10 -16z m540 -95 c0 -5 -4 -9 -10 -9 -5 0 -10 7 -10 16 0 8 5 12 10 9 6
-3 10 -10 10 -16z"/>
<path d="M2330 1109 c0 -6 -8 -8 -18 -5 -13 4 -18 0 -19 -14 -2 -29 41 -21 45
8 2 12 1 22 -2 22 -3 0 -6 -5 -6 -11z"/>
<path d="M560 1100 c0 -5 5 -10 11 -10 5 0 7 5 4 10 -3 6 -8 10 -11 10 -2 0
-4 -4 -4 -10z"/>
<path d="M2239 1098 c-3 -9 -9 -98 -6 -98 2 0 14 8 25 19 26 21 29 66 6 75
-17 6 -23 7 -25 4z"/>
<path d="M1763 1033 c-1 -22 4 -33 13 -33 9 0 14 11 14 33 0 21 -5 34 -13 34
-8 0 -14 -13 -14 -34z"/>
<path d="M1731 1044 c0 -11 3 -14 6 -6 3 7 2 16 -1 19 -3 4 -6 -2 -5 -13z"/>
<path d="M1631 1017 c-1 -11 -5 -15 -13 -11 -7 5 -9 2 -5 -9 3 -9 1 -18 -6
-21 -8 -3 -6 -5 3 -5 29 -1 41 14 31 40 -7 18 -10 20 -10 6z"/>
<path d="M1650 1015 c0 -20 17 -28 23 -11 3 8 -1 17 -9 20 -8 3 -14 -1 -14 -9z"/>
<path d="M4142 960 c0 -14 2 -19 5 -12 2 6 2 18 0 25 -3 6 -5 1 -5 -13z"/>
<path d="M4060 830 c0 -6 7 -10 15 -10 8 0 15 2 15 4 0 2 -7 6 -15 10 -8 3
-15 1 -15 -4z"/>
<path d="M443 503 c9 -2 25 -2 35 0 9 3 1 5 -18 5 -19 0 -27 -2 -17 -5z"/>
<path d="M4538 253 c7 -3 16 -2 19 1 4 3 -2 6 -13 5 -11 0 -14 -3 -6 -6z"/>
<path d="M4710 250 c0 -12 47 -13 53 -2 3 4 -8 8 -24 9 -16 1 -29 -2 -29 -7z"/>
<path d="M4545 210 c-12 -5 4 -6 40 -3 33 3 62 7 64 9 9 8 -85 2 -104 -6z"/>
<path d="M4571 186 c-11 -13 -5 -14 46 -10 62 6 85 14 37 14 -16 0 -38 3 -50
6 -12 3 -26 -1 -33 -10z"/>
<path d="M4700 187 c0 -4 15 -11 33 -16 28 -9 25 -9 -18 -4 -39 4 -48 3 -38
-7 16 -17 90 -15 108 4 14 13 13 15 -2 14 -10 0 -33 3 -50 7 -18 4 -33 5 -33
2z"/>
<path d="M4420 160 c0 -5 11 -10 24 -10 14 0 28 5 31 10 4 6 -7 10 -24 10 -17
0 -31 -4 -31 -10z"/>
<path d="M4494 162 c4 -7 16 -12 27 -12 10 0 19 -4 19 -9 0 -6 17 -12 38 -14
l37 -4 -39 -1 c-28 -2 -37 -6 -33 -16 3 -8 -1 -20 -9 -27 -22 -18 -4 -30 57
-39 48 -7 50 -8 16 -9 -21 0 -45 -8 -53 -16 -14 -13 -8 -15 48 -15 35 0 86 7
113 14 l50 14 -42 1 c-23 1 -44 5 -47 10 -8 12 24 23 38 13 17 -14 51 1 54 23
2 11 5 25 5 30 1 6 16 15 32 21 26 10 14 12 -75 12 -127 0 -143 2 -110 12 19
6 13 8 -30 9 -30 1 -66 4 -79 8 -17 4 -22 3 -17 -5z"/>
<path d="M4488 123 c6 -2 18 -2 25 0 6 3 1 5 -13 5 -14 0 -19 -2 -12 -5z"/>
<path d="M4460 91 c0 -6 -15 -12 -32 -14 l-33 -4 35 -1 c19 -1 49 5 65 13 l30
13 -32 1 c-18 1 -33 -3 -33 -8z"/>
<path d="M6008 83 c6 -2 18 -2 25 0 6 3 1 5 -13 5 -14 0 -19 -2 -12 -5z"/>
<path d="M4400 49 c0 -5 9 -9 20 -9 11 0 20 2 20 4 0 2 -9 6 -20 9 -11 3 -20
1 -20 -4z"/>
<path d="M6140 40 l-25 -8 28 -1 c15 -1 27 4 27 9 0 6 -1 10 -2 9 -2 -1 -14
-5 -28 -9z"/>
</g>
</svg>
